<?xml version="1.0" encoding="utf-8"?>
<!-- Generator: Adobe Illustrator 26.5.0, SVG Export Plug-In . SVG Version: 6.00 Build 0)  -->
<svg version="1.1" id="Layer_2_00000029039915542621782700000000505176727097691312_"
	 xmlns="http://www.w3.org/2000/svg" xmlns:xlink="http://www.w3.org/1999/xlink" x="0px" y="0px" viewBox="0 0 1356.4 311.6"
	 style="enable-background:new 0 0 1356.4 311.6;" xml:space="preserve">
<style type="text/css">
	.st0{fill-rule:evenodd;clip-rule:evenodd;fill:#FFFFFF;}
	.st1{fill:#FFFFFF;}
</style>
<g id="Layer_1-2">
	<path class="st0" d="M1353.3,171.9c-2.2-2.4-10.3-4.9-11.6-5.7c-1-0.6,6.5-3.4,7.9-4.8c5.8-5.8,5.2-8.1,4.5-15.7
		c-2.1-22.4-3.1-46.5-14.6-66.7c-29.6-52.1-89.9-85.7-148.9-67.2c-8.4,2.6-26.9,12.7-33.5,18.5c-10.5,9.2-36.5,34.5-36.5,34.5
		s-11.6-19.7-15.8-25.6c-22.5-31.5-56.5-38.7-91.5-30.4c-7.4,1.8-20.1,8-25.7,15.3c-5.7,7.5-9,20.2-9.8,18.6
		c-1-1.9-8.3-11.2-15.6-15.5c-5.6-3.3-13.4-6.1-19.9-6.8c-8.3-0.9-22.8-0.4-32.8,4.3c-10.8,5.1-25.3,17.3-31.8,26.4
		c-5.6,7.7-17.8,19.2-18.4,18.6c-2.2-2.2-4.3-13.3-20.3-36.6c-20.3-29.5-50.8-27.9-68.5-25c-34.2,5.6-68.6,15.1-97.7,34.6
		c-7.4,4.9-21,22.1-21,22.1s-5.7-29.1-9.2-40.7c-2.3-7.7-9.4-15.9-16.3-17.7c-10-2.3-33.2-3.2-40.4,2.4c-2.9,2.2-5,7.6-5,7.6
		s-3,0.8-8.3-0.3c-27.2-5.9-65-7.5-76.7-3.2c-12.2,4.6-18.9,17.4-28.3,26.4c-1.2,1.1-9.4-16.4-15.2-22.8
		c-5.4-5.9-8.6-10.5-19.5-15.3c-9-4-26.2,2.5-32.4,5.7c-22.7,11.5-24.9,18.3-35.3,27.8c-11.2,10.1-16.4,11.3-21.4,18.5
		c-3,4.3-4.3,8-3.6,17.2c0.9,10.8,4.7,14.9-4.3,12.7c-11.2-2.8-12.1-6.5-13-8.9c-0.3-0.8,9.8-27.4,7.9-41.1
		c-1.5-10.4-13.6-22-19.5-24.9c-26.3-12.5-54.2,5.8-70.8,23.5c-15.8-10.4-27.9-18.1-46.4-22.2c-23.8-5.2-44.9-8.2-67.5-7.4
		c-14.2,0.5-32.9,2-46.7,5.9c-16.8,4.8-38.7,18.2-49.2,33.1C19.5,48.8,8.2,60.6,5,71.7c-4.4,14.8-4.3,28.8-4.8,44
		c-0.8,26.8,0.8,81.2,2.9,97.7c0.7,5.9,2,16.7,2.8,24.1c1.9,17.2,4.3,30.5,8.4,47.2c1.4,5.6,3.5,12.1,7.7,16.3
		c4.2,4.3,10.2,6.3,15.8,7.8c7.8,2,14.9,2.7,29,2.8c15.3,0.1,32.4-2.5,43.3-14.5c2.8-3.1,4-7.5,7-10.3c6.9-6.4,20.4-9.1,22.2-20.3
		c0.8-4.8,0.3-9.6,0.1-14.4l-0.7-16.3c22.5-1.8,46.5-6.3,63.8-22.1c6.8-6.2,21.5-21.6,28.5-29.1c1.4-1.6,2.6-2.8,3.3-3.5
		c-0.7,0.7-1.8,1.9-3.3,3.5c-5.4,5.8-14.6,16.4-17.2,22.9c-16,39.6,18.8,80.3,55.2,91.6c32.5,10,67.4,13.7,100.9,7
		c18.9-3.8,44.7-10.8,60.3-22.2v0c15.6-11.4,27.3-21.7,33.2-46.1c-0.8,31.3,8.5,45.7,25.8,56.7c14.4,9.1,28.6,13.1,43.8,13.1
		c18.8,0,56.3-4.9,69-10.2c21.9-9.2,35.5-17.2,43.4-48.3c1.2,8.2,3.3,18.8,32.4,34.9c17.4,9.6,69.3,22.2,103.1,17.2
		c75.8-11.3,80.6-77.3,80.6-77.3s10.5,58.4,44.6,70.3c12.4,4.3,50-6,61.4-22c11-15.4,14.9-47.6,15.1-51.5c0.2-3.5-0.6-8.7,3.1-11.1
		c6.4-4.3,7.3-6.9,11.7-13c1.2-1.7,3.4-5.8,6.4-4.2c3,1.6-0.6,22.3,0.4,30.1c1.7,13,6.7,42.1,24.4,55.7c39,29.9,82.2-18,89.5-53
		c0.4,3.2,9.7,32.6,28,49.2c10.2,9.2,25.2,21.6,38.6,24.7c15.5,3.6,37.6,7.8,56.6,5.4c32.1-3.9,47-9.7,68.1-32.3
		c26.5-28.4,37.3-47.2,44.8-72.5C1356.2,193.6,1358.4,177.4,1353.3,171.9z M645.6,193c-0.2,2.2-0.4,4.4-0.6,6.6
		c-0.2,1.4-0.3,2.7-0.5,4.1c-0.2,2.1-0.5,4.2-0.8,6.2c-0.1,0.6-0.2,1.2-0.2,1.7c-0.2,1.3-0.4,2.6-0.6,3.9c-0.2,1.2-0.4,2.5-0.6,3.7
		c-0.2,1.2-0.4,2.4-0.7,3.5c-0.1,0.6-0.2,1.2-0.3,1.7c-0.1,0.7-0.3,1.4-0.5,2.1c-0.2,0.8-0.4,1.6-0.5,2.4c-0.2,0.9-0.5,1.8-0.7,2.7
		c-0.1,0.3-0.2,0.6-0.2,0.9c-0.1,0.4-0.2,0.8-0.3,1.2c-0.1,0.3-0.2,0.7-0.3,1c-0.1,0.2-0.1,0.5-0.2,0.7c-0.1,0.5-0.3,1-0.4,1.4
		c-0.1,0.4-0.3,0.9-0.4,1.3c-0.1,0.3-0.2,0.7-0.4,1c-0.1,0.4-0.2,0.7-0.4,1c-0.1,0.3-0.2,0.7-0.4,1c-0.5,1.3-1,2.5-1.5,3.7
		c-0.1,0.3-0.3,0.6-0.4,0.9c-0.1,0.3-0.3,0.6-0.4,0.8c-6.6,12.8-25.8,24.1-47.4,27.4c-7.5,1.1-17.8,1.6-28.4,1.6
		c-1.5,0.1-2.8,0.1-3.7,0c-0.5,0-1.3-0.1-2.2-0.1c-13.6-0.4-26.8-1.7-33.9-3.7c-18.7-5.4-30.8-14.9-38.1-30
		c-6.1-12.7-8.2-25.7-6.5-40.3c0-0.5,0.1-0.9,0.2-1.4c0.2-1.9,0.5-3.6,0.7-5.1c0,0,0,0,0,0c1.9-11.6,4.5-15.5,10.8-17.1
		c7.9-2.3,17.9-2.8,24.9-1.3c3.3,0.8,8.8,1.7,12.3,2.1c4.8,0.7,7.6,2,11.2,5.5c0.7,0.6,1.2,1.2,1.7,1.6c0.3,0.3,0.6,0.6,0.9,0.9
		c0.1,0.1,0.2,0.3,0.3,0.4c0.1,0.2,0.2,0.3,0.4,0.5c0.4,0.5,0.7,1.1,0.9,1.6c0.1,0.3,0.2,0.7,0.3,1.1c0.1,0.4,0.1,0.8,0.1,1.3
		c0,0,0,0.1,0,0.4c0,0.4,0,0.9,0,1.4c0,0.1,0,0.1,0,0.2c0,0.1,0,0.1,0,0.2c0,0,0,0,0,0c0,0.2,0,0.3,0,0.5c0,0.5-0.1,1-0.1,1.4
		c0,0.2,0,0.4-0.1,0.6c0,0.2,0,0.4-0.1,0.7c0,0,0,0,0,0c0,0.4-0.1,0.8-0.1,1.1c0,0.4-0.1,0.7-0.1,1.1c-0.5,7.7,1.5,13.1,6.1,17.5
		c3.8,3.5,10.4,3.6,21,0.7c15-4.3,23-10,27.3-19.4c3.3-7.6,5.6-27.2,4.4-38.3l-1.1-9.1l-1.6,4.5c-1.9,5.6-6.4,9.2-13.5,10.8
		c-10,2.3-45.6,4.3-67.5,3.8c-27-0.5-30.5-1.7-35.9-12.7c-1.9-3.9-2.8-6.9-3.3-6.9c0,0,0,0,0,0c-0.4,0-1.2,5.1-1.6,11.2
		c-0.7,10.6-2.5,21.9-5.1,32.7c0,0,0,0,0,0c-0.6,2.6-1.3,5.2-2,7.7c-0.3,1.1-0.7,2.3-1,3.4c-1.9,6.3-4.1,12.2-6.5,17.4
		c-6.2,13.8-7.9,16.9-13.5,22.5c-0.3,0.3-0.6,0.6-1,1c-0.3,0.3-0.7,0.7-1.1,1c-0.5,0.5-1,1-1.6,1.5c-21,19.4-44.3,27.6-78.6,27.6
		c-43.2,0-80.2-13.7-102.9-37.9c-10.6-11.4-14.3-20.6-13.4-33.5c0-0.6,0.1-1.2,0.2-1.8c0-0.5,0.1-0.9,0.2-1.4c0-0.1,0-0.2,0-0.4
		c0-0.3,0.1-0.7,0.2-1c0-0.2,0.1-0.5,0.1-0.7c0.1-0.3,0.1-0.6,0.2-0.9c0-0.2,0.1-0.5,0.2-0.8c0.1-0.6,0.3-1.2,0.5-1.8
		c0.1-0.4,0.2-0.8,0.3-1.2c0.1-0.5,0.3-1,0.5-1.5c0.1-0.4,0.2-0.8,0.4-1.1c0.1-0.3,0.2-0.6,0.4-1c0.2-0.7,0.5-1.3,0.8-1.9
		c0.1-0.3,0.3-0.6,0.4-0.9c0.2-0.4,0.4-0.9,0.6-1.3c0.1-0.3,0.2-0.5,0.4-0.8c0.1-0.3,0.3-0.6,0.5-0.9c0.3-0.6,0.6-1.1,0.9-1.7
		c0.1-0.1,0.2-0.3,0.2-0.4c0,0,0,0,0,0c5.2-9.1,12.7-16.3,20.1-18.2c9.1-2.3,25.6,0.7,34.3,6.2c3.9,2.4,9.2,8.4,9.4,10.4
		c0,3.1,8.4,11.2,13,12.9c12.5,4,39.9-3.8,50.7-14.3c11-10.8,12-18.1,3.6-22.4c-7.6-3.9-14.2-3.8-34.1,0.5
		c-22.1,4.7-34.3,5.2-50.5,2c-22.9-4.4-33.5-12.5-43.6-33.3c-3.3-6.8-6.6-14.5-6.8-14.7v0c-0.2-0.3-2.4-4.9-3.1-12l0,0
		c0-0.1,0-0.2,0-0.3c0,0,0-0.1,0-0.2v0c0-0.1,0-0.2,0-0.3c0-0.1,0-0.1,0-0.2c0,0,0-0.1,0-0.1c0-0.1,0-0.2,0-0.2
		c0-0.4-0.1-0.7-0.1-0.7s0,0,0,0c0-0.1,0-0.1,0-0.2c-0.2-4.6-0.3-9.9-0.4-15.2c0,4-0.1,7.8-0.1,11.1c0,2.3,0.1,4.2,0.1,4.5
		c0,0,0,0,0,0c0.2,7.9,0.8,15.9,0,23.8c-1.1,9.7-2.4,18.1-7.1,33.2c-2.3,7.2-11.9,19.8-21,27c-3.1,2.4-6.2,5-7,5.6
		c-0.2,0.2-0.5,0.4-0.8,0.6c-0.1,0-0.1,0.1-0.2,0.1c-0.1,0.1-0.2,0.1-0.2,0.1c-0.2,0.1-0.3,0.2-0.5,0.3c-0.1,0-0.2,0.1-0.3,0.2
		c0,0,0,0-0.1,0c-0.8,0.5-1.9,1.1-3,1.6c-3.7,1.7-8.4,3.3-8.9,3.6c-6.6,3-19,5.1-33.8,5.8c-0.1,0-0.1,0-0.2,0
		c-2.8,0.2-5.6,0.3-8,0.3c-4.5,0-9.6,0.3-14.3,0.8c0,0,0,0,0,0c-10.7,1.2-15.2,3.5-18.9,7.2v0c0,0.1,0,0.2,0,0.3c0,0,0,0.1,0,0.2
		v0.2c0,0.2,0,0.4,0,0.6c0,0.2,0,0.3,0,0.5c0.2,1.8,0.6,4.1,0.9,5.3c1.2,5.7,1.7,8.8,2.8,13.1c1,4.2,2.9,11.4,4,18.2
		c0,0,0,0.1,0,0.1c0.8,4.2,1.3,7.5,1.4,8.7c0.1,1.7-0.2,3.5-0.8,5.1c0,0,0,0,0,0c-0.1,0.5-0.3,1-0.5,1.4c-0.2,0.4-0.4,0.7-0.6,1.1
		c-0.2,0.3-0.3,0.6-0.5,0.8c-0.1,0.2-0.2,0.3-0.3,0.4c-0.1,0.2-0.2,0.3-0.4,0.5c0,0.1-0.1,0.1-0.1,0.2c0,0,0,0,0,0.1
		c0,0.1-0.1,0.1-0.2,0.2c0,0,0,0.1-0.1,0.1c0,0-0.1,0.1-0.1,0.1c0,0-0.1,0.1-0.1,0.1c-0.1,0.2-0.3,0.3-0.4,0.5
		c-0.2,0.3-0.5,0.5-0.8,0.8c-0.1,0.1-0.3,0.3-0.4,0.4c-0.3,0.3-0.5,0.5-0.8,0.7c-0.1,0-0.1,0.1-0.2,0.1c-0.1,0.1-0.2,0.2-0.4,0.3
		c-0.3,0.3-0.6,0.5-1,0.7c-0.2,0.1-0.3,0.2-0.5,0.3c-0.2,0.1-0.4,0.2-0.5,0.3c-0.2,0.1-0.4,0.2-0.5,0.3h0c0,0-0.1,0.1-0.1,0.1
		c-0.1,0.1-0.1,0.1-0.2,0.1c-0.3,0.2-0.6,0.3-0.9,0.5c0,0,0,0,0,0c-0.1,0-0.2,0.1-0.3,0.1c-0.5,0.2-0.9,0.5-1.4,0.7
		c-0.4,0.2-0.9,0.4-1.3,0.5c-0.2,0.1-0.4,0.1-0.5,0.2c-0.4,0.1-0.8,0.3-1.2,0.4c-0.1,0-0.2,0.1-0.3,0.1c-0.2,0.1-0.4,0.1-0.6,0.2
		c-0.1,0-0.1,0-0.2,0.1c0,0-0.1,0-0.1,0c-0.3,0.1-0.6,0.2-1,0.3c-0.5,0.2-1,0.3-1.5,0.4s-1,0.3-1.6,0.4c-0.4,0.1-0.7,0.2-1.1,0.2
		c-0.8,0.2-1.5,0.3-2.3,0.4c-0.6,0.1-1.2,0.2-1.9,0.3c0,0-0.1,0-0.1,0c-0.3,0-0.6,0.1-1,0.1c-0.7,0.1-1.4,0.2-2.1,0.2
		c-0.5,0.1-1.1,0.1-1.6,0.1c-0.2,0-0.4,0-0.6,0c-0.5,0-1,0.1-1.4,0.1c0,0-0.1,0-0.1,0c-0.4,0-0.8,0-1.3,0.1
		c-1.1,0.1-2.3,0.1-3.5,0.1c-1.6,0-3.1,0-4.7,0c-1,0-2,0-3-0.1c-2-0.1-4-0.2-6-0.3c-4-0.3-10.4-1.6-15.8-3.6c0,0,0,0,0,0
		c-4-1.3-7-2.8-8.5-4.5c-0.1-0.1-0.2-0.2-0.2-0.3c0,0,0,0,0,0c-0.6-0.6-1-1.2-1.3-1.9c-0.5-1.2-1.1-2.8-1.6-4.7c0,0,0-0.1,0-0.1
		c-3.9-11.7-8.5-35-11.1-57.1c0-0.4-0.1-0.7-0.1-1.1c-0.4-3.8-0.8-7.5-1.1-11.1c-0.5-5.1-1.1-9.6-1.3-10c-1.3-2.1-2.7-39.2-2.7-71.6
		c0-7.2-0.1-14,0-20.4v-0.1c-0.1-2.3,0-5.2,0.2-9c0-0.3,0-0.5,0-0.8c0.1-0.9,0.1-1.7,0.2-2.7c0-0.7,0.1-1.3,0.1-2
		c0-0.4,0.1-0.9,0.1-1.3c0.1-0.6,0.1-1.3,0.2-1.9c0.1-0.7,0.2-1.5,0.3-2.2c0-0.4,0.1-0.8,0.2-1.1c0-0.3,0.1-0.5,0.1-0.8
		c0.5-3.1,1-6.2,1.7-9c3.8-14.8,12.7-26.1,26.6-33.7c0,0,0.1,0,0.1-0.1c2.7-1.6,6.2-3.2,10.3-4.6c0.1,0,0.1-0.1,0.2-0.1
		c17-6.3,39.6-8.7,67.6-7.1c31.5,1.8,55,6.8,71.5,14.8c0,0,0,0,0.1,0c7.7,3.6,12.8,7.4,16.1,10.7c0,0,0,0,0,0
		c2.6,2.4,4.8,4.9,6.7,7.6c0,0.1,0.1,0.1,0.1,0.1c0.2,0.3,0.5,0.7,0.7,1c0.2,0.3,0.3,0.5,0.5,0.8c0.1,0.2,0.2,0.4,0.4,0.6
		s0.2,0.4,0.4,0.6c0.3,0.5,0.6,1,0.8,1.5c0.1,0.1,0.2,0.3,0.2,0.4c0.2,0.3,0.3,0.6,0.5,0.9c0.1,0.2,0.2,0.3,0.2,0.5
		c0.1,0.3,0.3,0.5,0.4,0.8c0,0.1,0.1,0.2,0.1,0.2c0.2,0.3,0.3,0.7,0.4,1c0.6,1.3,1.1,2.7,1.5,4.1c0.1,0.5,0.3,0.9,0.4,1.4
		c0,0,0,0,0,0.1c0.1,0.3,0.2,0.5,0.2,0.8c0.1,0.5,0.2,0.9,0.3,1.4c0,0,0,0.1,0,0.1c0.2,0.6,0.3,1.3,0.4,2.2c0.3,1.6,0.4,3.1,0.5,4.7
		c0.1-6.6,0.3-11.5,0.3-12c0-2.1,0.7-5.2,1.9-8.7c0.1-0.2,0.2-0.5,0.3-0.8c1.5-4.2,3.5-8.8,5.6-12.1c0.8-1.3,2.1-2.9,3.8-4.5
		c0.2-0.2,0.5-0.5,0.7-0.7s0.5-0.5,0.8-0.7c0.8-0.7,1.6-1.4,2.5-2.1c0.3-0.2,0.6-0.5,0.9-0.7c0.4-0.3,0.7-0.5,1.1-0.8v0c0,0,0,0,0,0
		c1-0.8,2.1-1.6,3.2-2.3c0,0,0.1,0,0.1-0.1v0c0,0,0,0,0.1,0c0.2-0.1,0.3-0.2,0.5-0.3c0.2-0.1,0.4-0.2,0.6-0.4v0
		c0.1-0.1,0.2-0.1,0.3-0.2c0.4-0.2,0.7-0.5,1.1-0.7c0.3-0.2,0.6-0.4,0.9-0.6v0c0,0,0.1,0,0.1-0.1c0.3-0.2,0.7-0.4,1-0.6v0
		c0,0,0,0,0,0c0.4-0.2,0.7-0.4,1.1-0.6c0.3-0.2,0.5-0.3,0.8-0.4c0.1,0,0.1-0.1,0.2-0.1c0,0,0,0,0,0c0,0,0,0,0,0c0,0,0.1,0,0.1,0v0
		c0.2-0.1,0.5-0.2,0.7-0.4c0.2-0.1,0.4-0.2,0.6-0.3c0.1,0,0.1-0.1,0.2-0.1c0.1-0.1,0.2-0.1,0.4-0.2c0.1,0,0.2-0.1,0.3-0.1v0
		c0,0,0,0,0,0c0.1,0,0.2-0.1,0.4-0.2c0.2-0.1,0.4-0.2,0.7-0.3v0c0,0,0.1,0,0.1,0c0.3-0.1,0.6-0.3,0.9-0.4c0.7-0.3,1.3-0.5,1.9-0.7
		c2.7-0.8,19.3-3.3,25.2-0.7c0.3,0.1,0.5,0.2,0.8,0.4c0.3,0.2,0.7,0.3,1,0.5c0.3,0.2,0.7,0.3,1,0.5c0.3,0.2,0.6,0.3,0.9,0.5
		c0.7,0.4,1.4,0.8,2.1,1.3c0,0,0.1,0,0.1,0.1c0.3,0.2,0.5,0.4,0.8,0.5c0.1,0,0.1,0.1,0.2,0.1c0,0,0.1,0,0.1,0.1
		c0.1,0,0.1,0.1,0.2,0.2c0,0,0,0,0.1,0c0,0,0,0,0,0c0,0,0,0,0,0c0,0,0,0,0,0c0,0,0,0,0,0c0,0,0,0,0,0c0,0,0.1,0,0.1,0.1c0,0,0,0,0,0
		c0.2,0.1,0.4,0.3,0.6,0.4c0,0,0.1,0,0.1,0.1c0.2,0.1,0.4,0.3,0.5,0.5c0,0,0,0,0,0c0.2,0.1,0.3,0.3,0.5,0.5c0.3,0.2,0.5,0.5,0.8,0.7
		c1.1,1.2,2.1,2.4,3.1,3.8v0c0.5,0.7,0.9,1.5,1.4,2.2c0.2,0.4,0.4,0.8,0.7,1.2c3.2,6.3,2.7,11.8-3.1,30.2c-2.1,7-3.9,13.7-3.9,14.9
		c0,3.3,6.3,10.3,11.9,13.1c13.8,7,40.1,6.2,52.5-1.5c6.6-3.9,10.6-9.4,10.6-13.9c0-1.3-2.1-6.8-4.7-12.2
		c-6.2-12.3-7.2-20.9-3.5-26.8c5.9-9.4,28-22.6,40-24.1c12.8-1.5,24.8,7,35.9,25.7c2.3,3.7,5,9,7.5,14.5c0.4,0.9,0.8,1.8,1.2,2.8
		c0.2,0.5,0.4,0.9,0.6,1.4c0.6,1.4,1.2,2.8,1.7,4.1c0.3,0.7,0.5,1.3,0.8,2c0.2,0.6,0.5,1.3,0.7,1.9c0.3,0.8,0.6,1.7,0.9,2.4
		c0.1,0.4,0.2,0.8,0.4,1.2c0.2,0.6,0.3,1.1,0.5,1.6c0.1,0.3,0.2,0.6,0.2,0.9c0.2,0.6,0.3,1.1,0.4,1.7c0,0.3,0.1,0.5,0.1,0.8
		c0,0.2,0.1,0.4,0.1,0.6c0,0,0,0.1,0,0.1c0,0,0,0.1,0,0.1c0,0.1,0.1,0.3,0.1,0.4c0-0.3,0-0.6,0.1-0.9c0-0.3,0-0.6,0.1-0.9
		c0-0.2,0-0.4,0-0.5c0,0,0-0.1,0-0.1c0-0.2,0-0.5,0.1-0.7c0-0.1,0-0.3,0-0.4c0-0.4,0.1-0.7,0.1-1.1c0-0.2,0.1-0.4,0.1-0.6
		c0-0.3,0.1-0.5,0.1-0.8c0-0.3,0.1-0.5,0.1-0.8c0.4-2.1,0.8-3.9,1.4-5.6c0.2-0.7,0.5-1.3,0.7-1.9c0.1-0.2,0.2-0.4,0.3-0.6
		c0.2-0.4,0.4-0.8,0.6-1.2c0,0,0,0,0,0c0.2-0.4,0.4-0.7,0.6-1.1c0.1-0.2,0.2-0.4,0.3-0.5c0.1-0.2,0.2-0.3,0.3-0.5
		c0.1-0.1,0.2-0.2,0.2-0.3c0.1-0.2,0.3-0.5,0.5-0.7c1.1-1.7,2.4-3.9,3.6-6.1c0.5-0.8,0.9-1.6,1.3-2.4c0.4-0.8,0.8-1.5,1.2-2.2
		c4.2-8.3,10.2-14.7,17.1-18.5c8.3-4.4,32.5-4,58.9,1.1c11.1,2.1,22.8,3.9,26.1,3.9c5.6,0.1,6-0.1,6-3.5c0-5.4,3.3-7.8,12.8-9.1
		c9.9-1.5,21,0.4,25.2,4.2c4,3.9,10.4,27.8,14,53.4c1.6,11.6,2.9,23.7,3.7,35.7c0.1,0.9,0.1,1.8,0.2,2.6
		C648,140.3,647.7,168.9,645.6,193z M553,200.5c1.1-0.1,2.2,0,3.3-0.1c1.2-0.1,4.7-1,5.3-0.9c1,0.1,1.2,1.3,1.2,2.1
		c0,1.4-0.3,3.4-0.9,4.7c-1.1,2.3-3.9,2.8-6.1,3.2c-4,0.5-5.1,0.3-6.3-2c-0.5-1-1-2.1-1.3-3.2C547.1,201.7,551,200.7,553,200.5z
		 M860.7,156.7c-0.2,11.1-0.4,19.2-0.8,25.7v0c0,0.3,0,0.5-0.1,0.8c-0.2,2.1-0.3,4.1-0.6,6c-0.1,0.5-0.1,1.1-0.2,1.6
		c0,0.3-0.1,0.5-0.1,0.8c-0.1,0.7-0.2,1.3-0.3,2c0,0.1,0,0.2-0.1,0.4c-0.1,0.8-0.3,1.5-0.4,2.3c-0.2,1.2-0.5,2.5-0.8,3.8
		c-0.1,0.5-0.2,1-0.4,1.5c-0.1,0.3-0.1,0.5-0.2,0.8c-0.1,0.2-0.1,0.5-0.2,0.8c-0.1,0.4-0.2,0.9-0.4,1.4c-0.1,0.5-0.3,0.9-0.4,1.4h0
		c-0.1,0.2-0.1,0.5-0.2,0.7c-0.2,0.7-0.4,1.5-0.7,2.2c-0.3,0.8-0.5,1.7-0.9,2.6c0,0.1,0,0.2-0.1,0.3c-0.4,1.1-0.8,2.3-1.2,3.5
		c-0.3,1-0.7,2-1,3.1c-4.8,13.8-8.7,22-14.3,29.5c-0.5,0.6-1,1.3-1.5,1.9c0,0,0,0,0,0c-0.5,0.6-1,1.3-1.6,1.9
		c-0.8,1-1.7,1.9-2.6,2.9c-0.6,0.6-1.2,1.3-1.9,2c-4.6,4.6-8.8,8.2-13.1,11c-0.8,0.5-1.7,1.1-2.6,1.5l0,0c-0.5,0.3-0.9,0.5-1.4,0.8
		c-0.7,0.4-1.4,0.7-2.1,1c-0.5,0.2-1,0.4-1.5,0.7c-0.4,0.2-0.9,0.3-1.3,0.5c0,0,0,0-0.1,0c-0.3,0.1-0.6,0.2-0.8,0.3
		c-0.4,0.2-0.9,0.3-1.3,0.5c-0.4,0.1-0.7,0.2-1.1,0.3c-0.2,0.1-0.3,0.1-0.5,0.2c-0.1,0-0.2,0-0.2,0.1c0,0,0,0-0.1,0
		c-0.2,0.1-0.4,0.1-0.6,0.2c-0.1,0-0.2,0.1-0.4,0.1c-0.2,0-0.4,0.1-0.6,0.2c-0.1,0-0.2,0.1-0.4,0.1c-0.1,0-0.2,0-0.2,0.1
		c-0.1,0-0.1,0-0.2,0c-0.3,0.1-0.6,0.2-1,0.2c-0.2,0-0.4,0.1-0.6,0.1l0,0c-0.1,0-0.3,0.1-0.4,0.1c-0.1,0-0.3,0.1-0.4,0.1
		c-0.1,0-0.2,0-0.3,0.1c-0.3,0-0.5,0.1-0.8,0.2c-0.4,0.1-0.7,0.1-1.1,0.2c-0.4,0.1-0.7,0.1-1.1,0.2c-0.5,0.1-0.9,0.1-1.4,0.2
		c-0.3,0-0.5,0.1-0.8,0.1c-0.2,0-0.4,0-0.6,0.1c-0.2,0-0.3,0-0.5,0.1c-0.3,0-0.5,0.1-0.8,0.1c-0.2,0-0.5,0.1-0.7,0.1
		c-0.3,0-0.6,0.1-0.8,0.1l0,0c-0.1,0-0.3,0-0.5,0c-0.2,0-0.5,0-0.8,0.1c-0.4,0-0.8,0.1-1.3,0.1c-0.2,0-0.5,0-0.8,0.1
		c-0.3,0-0.7,0-1,0.1c-0.3,0-0.7,0-1.1,0.1c-0.5,0-1,0-1.5,0.1c-0.8,0-1.5,0.1-2.3,0.1c-8.4,0.4-20.4,0.1-26.7-0.7
		c-12.7-1.3-30.8-5.5-40.8-9.5c-38.4-15-59.3-34.7-63.6-60.1c0-0.2-0.1-0.4-0.1-0.6c0-0.2-0.1-0.4-0.1-0.6c-0.1-0.8-0.3-1.7-0.4-2.5
		c-0.1-0.4-0.1-0.8-0.1-1.3c0-0.4-0.1-0.8-0.1-1.2c-0.4-4.3-0.3-8.5,0.4-12.7c0-0.1,0-0.2,0-0.2s0,0,0,0
		c1.8-12.5,8.2-24.9,20.3-40.9c5.2-6.8,20.2-18.2,31.2-23.5c8.4-4.2,11.5-5,22.8-5.6c12.5-0.7,13.5-0.5,24.1,3.5
		c6.2,2.4,14.5,6.2,18.7,8.3c4.2,2.1,10.2,4.3,13.4,4.7c5.3,0.8,6.2,0.4,11.8-4.5c5.8-5.1,6-5.6,5.9-12.6c-0.1-4-1.2-9.3-2.4-11.9
		c0,0,0,0,0,0c-0.2-0.4-0.4-0.8-0.6-1.2c-0.2-0.4-0.5-0.8-0.8-1.3c-2.7-4.1-7.5-9.9-12.2-14.5c-1.3-1.3-2.6-2.5-3.8-3.5
		c-0.4-0.3-0.7-0.6-1.1-0.9c-0.4-0.3-0.7-0.6-1-0.8c-0.4-0.3-0.9-0.7-1.3-0.9c-5-3.5-5.6-3.6-13-2.3c-4.3,0.8-10.2,2.7-13.1,4.3
		c-0.1,0-0.2,0.1-0.3,0.2c-0.1,0.1-0.2,0.1-0.3,0.2c0,0,0,0,0,0c0,0,0,0,0,0c0,0,0,0-0.1,0c-0.1,0.1-0.2,0.1-0.3,0.2
		c-0.5,0.3-1,0.6-1.5,0.9c-0.2,0.1-0.4,0.2-0.6,0.4c-0.9,0.6-1.9,1.3-2.9,2c-0.3,0.2-0.6,0.4-0.8,0.6c-2,1.4-4,3-5.8,4.5
		c-0.3,0.2-0.5,0.4-0.8,0.6c-0.4,0.4-0.9,0.7-1.3,1c-1.2,1-2.4,2-3.5,2.9c-0.3,0.2-0.5,0.4-0.7,0.6c-0.2,0.1-0.3,0.3-0.4,0.4
		c-0.1,0.1-0.1,0.1-0.1,0.1s0,0,0,0c-3.6,2.9-4.5,4.8-10,9.5c-8.4,7.2-11.4,8.8-17.8,10.2c-7.8,1.5-19,0.5-24.1-2.1
		c-5.6-3.1-9.8-9.5-12.1-18.4c-0.2-0.6-0.3-1.3-0.5-1.9c-0.1-0.5-0.2-1-0.3-1.6c0-0.2-0.1-0.3-0.1-0.5c-0.3-1.4-0.5-2.9-0.7-4.4
		c0,0,0,0,0,0c0-0.1,0-0.2,0-0.3c-0.1-0.4-0.1-0.8-0.1-1.2c0-0.2,0-0.5-0.1-0.7c0-0.4-0.1-0.7-0.1-1.1c0-0.5-0.1-0.9-0.1-1.4
		c0-0.7-0.1-1.3-0.1-2c0-0.7,0-1.4,0-2.2c-0.1-7,0.4-8.8,4.3-14.5c7.1-10.2,14.7-16.3,29-23.5c14-7.1,34.8-14.3,44.2-16.7
		c3.5-0.9,12.5-3,18.7-4.2c0.6-0.1,1.3-0.2,1.9-0.3c0.2,0,0.4-0.1,0.6-0.1c24-4.1,39.7-2.3,49.9,2.9c0,0,0,0,0,0
		c1.1,0.5,2.1,1.1,3,1.7c0.9,0.6,1.8,1.3,2.7,1.9c1,0.8,2.1,1.8,3.3,3c1,1,2,2,3,3.1c0,0,0,0,0,0c0.5,0.5,1,1.1,1.4,1.6c0,0,0,0,0,0
		c0.1,0.2,0.3,0.3,0.5,0.5c0.1,0.2,0.3,0.3,0.4,0.5c0.2,0.2,0.4,0.5,0.6,0.8c0.2,0.2,0.4,0.5,0.6,0.7c0,0,0.1,0.1,0.1,0.1
		c0.1,0.1,0.2,0.3,0.3,0.4c0.1,0.1,0.1,0.2,0.2,0.2c0.2,0.2,0.4,0.5,0.5,0.7c0.2,0.3,0.4,0.5,0.6,0.8c0.2,0.3,0.4,0.5,0.6,0.8
		c0.4,0.6,0.8,1.1,1.2,1.7c0.7,0.9,1.3,1.8,1.9,2.6c0.8,1.2,1.7,2.3,2.4,3.4c0.3,0.5,0.7,1,1,1.5s0.6,1,0.9,1.4
		c0.2,0.2,0.3,0.5,0.5,0.8c0,0.1,0.1,0.1,0.1,0.2c0.5,0.7,0.9,1.4,1.4,2.2c0.4,0.6,0.8,1.2,1.1,1.8c0.3,0.5,0.6,1,0.9,1.4
		c0.3,0.5,0.6,0.9,0.8,1.4c1.9,3.3,3.6,6.6,5,10c0,0.1,0.1,0.2,0.2,0.3c3.9,7.9,8.4,25.1,8.4,25.1s0,0-0.1,0
		c1.4,5.3,2.6,10.8,3.7,16.6C861,123.7,861.2,129.1,860.7,156.7z M1343.7,185c0,0.1,0,0.2,0,0.3c0,0.1,0,0.1,0,0.2
		c0,0.1,0,0.3,0,0.4c0,0.1,0,0.2,0,0.2c0,0,0,0.1,0,0.2c0,0,0,0,0,0c0,0.2,0,0.3,0,0.5c0,0.1,0,0.2,0,0.2c0,0.1,0,0.2,0,0.3
		c0,0,0,0,0,0v0c0,0.1,0,0.2-0.1,0.3c0,0.2-0.1,0.5-0.1,0.7c0,0,0,0,0,0c0,0.1,0,0.2,0,0.3c0,0.1,0,0.2,0,0.3c0,0.1,0,0.2-0.1,0.3
		c0,0.1,0,0.2,0,0.3c0,0,0,0,0,0c0,0,0,0.1,0,0.1c0,0,0,0.1,0,0.2c0,0.2-0.1,0.3-0.1,0.5c0,0.1,0,0.3-0.1,0.4
		c-0.1,0.4-0.2,0.8-0.2,1.2c-0.1,0.5-0.2,1-0.3,1.5c0,0.1-0.1,0.3-0.1,0.4c-0.1,0.2-0.1,0.5-0.2,0.8c-0.1,0.2-0.1,0.5-0.2,0.8
		c0,0.2-0.1,0.3-0.1,0.5c0,0.1-0.1,0.2-0.1,0.4c0,0.2-0.1,0.4-0.2,0.6c0,0,0,0,0,0c-0.1,0.4-0.2,0.8-0.4,1.3
		c-0.1,0.4-0.3,0.9-0.4,1.3c-0.1,0.4-0.3,0.9-0.4,1.3c-0.6,1.8-1.2,3.5-1.9,5.3c-0.2,0.4-0.4,0.9-0.5,1.3c-0.1,0.2-0.2,0.4-0.2,0.5
		c-0.2,0.4-0.3,0.8-0.5,1.2c-0.1,0.3-0.3,0.6-0.4,0.9c-0.3,0.7-0.6,1.4-0.9,2.1c-0.1,0.3-0.3,0.6-0.4,0.9c-0.3,0.6-0.6,1.2-0.8,1.8
		c-0.1,0.1-0.1,0.3-0.2,0.4c-0.2,0.4-0.4,0.8-0.6,1.3c-0.4,0.8-0.8,1.7-1.3,2.5c-0.7,1.2-1.3,2.4-2,3.6c-1.3,2.3-2.7,4.4-4.1,6.2
		c-9.1,12.3-25.6,27.3-41.3,36.7c-1.1,0.7-2.2,1.3-3.3,1.9c-1.1,0.6-2.2,1.2-3.3,1.7c-1.1,0.5-2.1,1-3.2,1.5c0,0,0,0,0,0
		c-0.5,0.2-1,0.4-1.5,0.6c-0.1,0-0.2,0.1-0.3,0.1c-0.4,0.2-0.9,0.4-1.3,0.5c-18.2,6.9-43.3,3.2-58.5-0.3c0,0,0,0,0,0
		c-33-7.8-58.5-23.4-74.8-46.2c-0.7-1-1.4-2-2-3c-0.6-0.9-1.2-1.8-1.7-2.7c-0.2-0.2-0.3-0.5-0.5-0.7c-0.1-0.2-0.2-0.4-0.4-0.6
		c-0.3-0.6-0.7-1.1-1-1.7c-0.4-0.8-0.9-1.5-1.4-2.3c-0.3-0.5-0.5-0.9-0.8-1.3c-1.2-2.1-2.3-4.2-3.3-6.2c-0.2-0.5-0.5-0.9-0.7-1.4
		c-0.3-0.6-0.5-1.1-0.8-1.6c-0.4-0.8-0.8-1.6-1.1-2.3c-0.1-0.2-0.2-0.4-0.3-0.6c-0.1-0.2-0.2-0.4-0.3-0.6c0-0.1,0-0.1-0.1-0.2
		c-1.2-2.6-2-4.6-2.4-5.8c-0.2-0.8-0.5-1.7-0.7-2.7c0-0.1,0-0.2-0.1-0.3c-0.6-2.6-0.8-5.2-0.9-7c0,0,0,0,0,0
		c-0.2-2.6-0.4-5.6-0.5-8.7c-0.3,3.1-0.6,6.1-0.9,8.8c0,0,0,0,0,0c-0.1,0.8-0.2,1.6-0.3,2.3c0,0,0,0,0,0c-0.1,0.5-0.1,0.9-0.2,1.4
		c-0.1,0.5-0.1,1-0.2,1.4c-0.1,0.4-0.1,0.9-0.2,1.3c-0.1,0.5-0.1,1-0.2,1.5c0,0.3-0.1,0.6-0.1,0.9c-0.2,1.3-0.4,2.5-0.5,3.5
		c0,0.2-0.1,0.5-0.1,0.7c-0.2,1.1-0.3,2-0.5,2.6c0,0.1,0,0.2-0.1,0.4c0,0.1,0,0.1,0,0.2c-4,15.8-8.9,25.9-16.2,33.3
		c-0.2,0.2-0.5,0.5-0.7,0.7c-10.2,9.8-18.6,12.9-30.8,11c-0.5-0.1-0.9-0.2-1.3-0.2c-0.1,0-0.1,0-0.2,0c-0.3,0-0.5-0.1-0.8-0.2
		c-0.3-0.1-0.6-0.1-0.8-0.2c-0.3-0.1-0.5-0.2-0.8-0.3c-0.3-0.1-0.5-0.2-0.8-0.3c-0.2-0.1-0.4-0.2-0.6-0.3c-0.1,0-0.2-0.1-0.3-0.1
		c-0.2-0.1-0.4-0.2-0.7-0.4c-0.1-0.1-0.2-0.1-0.3-0.2c-0.1,0-0.1-0.1-0.2-0.1c0,0,0,0-0.1,0c0,0,0,0,0,0v0c0,0,0,0,0,0
		c0,0-0.1,0-0.1-0.1c-0.1-0.1-0.2-0.2-0.4-0.3c0,0-0.1-0.1-0.1-0.1c0,0-0.1-0.1-0.2-0.1c-0.1-0.1-0.2-0.1-0.2-0.2s-0.2-0.1-0.2-0.2
		c-0.2-0.2-0.4-0.3-0.7-0.5c-0.3-0.2-0.6-0.5-1-0.8c-0.3-0.3-0.7-0.6-1-0.9c-0.3-0.3-0.6-0.6-1-0.9c-0.1-0.1-0.3-0.3-0.4-0.4
		c-0.1-0.1-0.2-0.2-0.3-0.3v0c-0.2-0.2-0.4-0.4-0.6-0.6c-0.2-0.2-0.5-0.5-0.7-0.7c-0.3-0.2-0.5-0.5-0.8-0.8
		c-0.2-0.2-0.4-0.3-0.5-0.5v0c-11-11-15.7-20.2-16.7-33c-0.1-1-0.2-2-0.2-3.1c0-0.8-0.1-1.5-0.1-2.3c0-0.2,0-0.4,0-0.7
		c0-0.1,0-0.2,0-0.3c0,0,0,0,0-0.1c0-0.1,0-0.2,0-0.3c0-0.1,0-0.3,0-0.4v-0.3c0-0.1,0-0.2,0-0.3c0-0.1,0-0.3,0-0.4v-0.1
		c0,0,0-0.1,0-0.1c0-0.2,0-0.5,0-0.7c0,0,0,0,0,0c0-0.2,0-0.5,0-0.7c0-0.2,0-0.5,0-0.7c0,0,0,0,0,0c0-0.2,0-0.5,0.1-0.7
		c0-0.2,0-0.5,0.1-0.8c0,0,0,0,0,0c0-0.2,0-0.5,0.1-0.8c0-0.1,0-0.3,0-0.4c0-0.4,0.1-0.8,0.1-1.2c0.1-1.1,0.3-2.3,0.4-3.5
		c0-0.2,0.1-0.4,0.1-0.6c0.1-1,0.3-2,0.4-3.1c0.1-0.7,0.2-1.5,0.4-2.2c1.1-6.6,2.6-15.2,4.9-26.7c1.7-9.5,3.8-23,4.2-30.2
		c0.8-10.5,0.8-12.8-1.3-17.4c0,0,0,0,0-0.1c-0.4-0.8-0.7-1.4-0.9-1.9c0-0.1-0.1-0.1-0.1-0.2c-0.1-0.1-0.1-0.2-0.2-0.3
		c0,0,0-0.1-0.1-0.1c-0.1-0.2-0.2-0.4-0.3-0.6c-0.1-0.2-0.2-0.3-0.2-0.5c-0.1-0.2-0.2-0.3-0.3-0.5c-0.1-0.2-0.2-0.4-0.3-0.6
		c-0.2-0.3-0.3-0.6-0.5-0.9c-0.1-0.2-0.3-0.4-0.4-0.6c0-0.1-0.1-0.1-0.1-0.2c0,0,0,0,0,0c-0.2-0.2-0.3-0.4-0.5-0.6
		c-0.6-0.8-1.1-1.4-1.7-2c-0.1-0.1-0.2-0.2-0.3-0.3c-0.4-0.4-0.8-0.7-1.2-1c-1.2-0.7-2.3-1-3.4-0.8c-1,0.1-3.2,1.4-4.6,5.6
		c0,0,0,0.1-0.1,0.1l0,0c-0.3,0.9-0.5,2-0.7,3.1c-2.8,15.7-14,58.5-16.9,64.5c-6.4,13.7-16.3,16.9-26.5,8.8
		c-5.1-4-15.9-19.5-31.3-44.3c-3.4-5.6-8.4-12.7-11.1-15.9c-4.4-5.1-5.1-5.5-7-3.6c-2.7,2.7-5.2,15.7-1.6,27
		c1.6,5.1,16.2,32.7,19.4,36.7c1.7,2.1,7.6,13.5,12.9,24.8c0.4,0.9,0.8,1.9,1.2,2.9c0.1,0.4,0.2,0.7,0.4,1.1
		c0.2,0.5,0.3,0.9,0.4,1.4c0.1,0.2,0.1,0.5,0.2,0.8c0.1,0.2,0.1,0.5,0.2,0.7c0.1,0.3,0.1,0.6,0.2,0.9c0,0.1,0.1,0.2,0.1,0.4
		c0,0.2,0.1,0.4,0.1,0.6c0,0.1,0,0.2,0,0.3c0.1,0.3,0.1,0.6,0.2,0.9c0.1,0.5,0.2,1.1,0.2,1.6c0.1,0.4,0.1,0.9,0.2,1.3
		c0.1,0.9,0.2,1.7,0.2,2.6c0,0.2,0,0.4,0,0.6c0,0.3,0,0.5,0,0.8c0,0.3,0,0.6,0,0.9v0.1c0,0.3,0,0.6,0,0.8c0,2.8-0.1,5.7-0.4,8.6
		c-0.7,6.5-2.3,12.9-4.7,18.6c-0.5,1.2-1,2.3-1.5,3.4c-4,7.9-12.9,16.7-19.8,19.8c-8,3.6-25.2,4.1-32.7,0.8
		c-6.8-2.9-19.4-15.9-24.5-25v0c-0.3-0.5-0.6-1.1-0.9-1.7c0-0.1-0.1-0.1-0.1-0.2c-7.6-14.3-14-33.2-17.8-52.3c0,0,0,0,0,0
		c0-0.2-0.1-0.3-0.1-0.3c0,0,0,0,0,0c-1.5-7.3-2.5-14.7-3.2-21.8c-0.7-7.7-1-15.5-0.9-23.3c0-1.2,0-2.3,0.1-3.5
		c0-1.2,0.1-2.4,0.1-3.6c0-0.9,0.1-1.8,0.1-2.7c0-0.1,0-0.1,0-0.2c0-0.6,0.1-1.3,0.1-1.9c0-0.2,0-0.4,0-0.6c0-0.6,0.1-1.2,0.1-1.9
		c0.1-1.2,0.2-2.5,0.3-3.7c0-0.4,0.1-0.8,0.1-1.1c0.1-1.4,0.3-2.7,0.4-4.1c0.1-0.7,0.2-1.4,0.3-2.1c0.2-1.4,0.4-2.9,0.6-4.3
		c0.1-0.6,0.2-1.1,0.3-1.7c0.1-1,0.3-2,0.5-3c0.2-0.9,0.3-1.8,0.5-2.8c0.4-2,0.8-4,1.2-6c0.1-0.4,0.2-0.7,0.2-1.1
		c0.1-0.5,0.2-1.1,0.4-1.6c0.1-0.5,0.2-1,0.3-1.5c0.2-0.8,0.4-1.6,0.6-2.4c0,0,0,0,0,0c0,0,0-0.1,0-0.1c0,0,0-0.1,0-0.1
		c0.1-0.5,0.2-1,0.4-1.5c0.4-1.6,0.8-3.1,1.3-4.7c0.3-1,0.6-2.1,0.9-3.1c0.3-1,0.6-2,0.9-2.9c0.1-0.3,0.2-0.6,0.3-1
		c0.1-0.3,0.2-0.6,0.3-0.9c0.3-0.8,0.6-1.7,0.9-2.5c0.2-0.5,0.3-0.9,0.5-1.4c0.4-1,0.7-1.9,1.1-2.9c0.2-0.4,0.3-0.8,0.5-1.2
		c0.2-0.4,0.4-0.9,0.6-1.3c0.1-0.2,0.2-0.5,0.3-0.7c0.1-0.2,0.2-0.5,0.3-0.7c0.5-1.1,1-2.2,1.5-3.3c0.3-0.5,0.5-1,0.8-1.6
		c0.3-0.5,0.5-1,0.8-1.5c0.2-0.3,0.4-0.7,0.5-1c0.2-0.3,0.3-0.5,0.5-0.8c0.2-0.4,0.5-0.8,0.7-1.2c0.5-0.8,0.9-1.6,1.4-2.3
		c0.1-0.2,0.2-0.3,0.3-0.4c0.2-0.4,0.5-0.7,0.7-1.1c0.6-1,1.3-1.9,1.9-2.8c0.3-0.4,0.6-0.8,0.9-1.2c0.2-0.3,0.5-0.6,0.7-0.9
		c0.2-0.3,0.4-0.5,0.6-0.8c0.2-0.2,0.4-0.4,0.5-0.6c0.3-0.4,0.6-0.7,1-1.1c0.3-0.3,0.6-0.7,1-1c11.1-11.1,27.2-18.2,41.6-18.2
		c8,0,10,0.5,17.5,5.1c4.7,2.7,11,7.9,14,11.5c1,1.2,1.9,2.3,2.8,3.4c0.2,0.2,0.3,0.4,0.5,0.6c0,0.1,0.1,0.1,0.1,0.2h0
		c0.1,0.1,0.2,0.2,0.3,0.4c0.1,0.1,0.2,0.2,0.3,0.3h0c0.2,0.2,0.4,0.5,0.5,0.7c0.2,0.2,0.3,0.4,0.5,0.6c0.4,0.5,0.7,0.9,1,1.3
		c0,0.1,0.1,0.1,0.1,0.2h0c0.4,0.5,0.7,0.9,1,1.2c0,0,0,0,0,0c0.1,0.2,0.3,0.3,0.4,0.5c0,0,0,0,0.1,0.1c0.1,0.1,0.2,0.2,0.3,0.3
		c0,0.1,0.1,0.1,0.2,0.2c0.4,0.5,0.8,0.9,1.2,1.3c0.1,0.1,0.2,0.2,0.3,0.3c0.1,0.1,0.2,0.2,0.4,0.3c0,0,0,0,0,0c0,0,0,0,0.1,0
		c0,0,0,0,0.1,0c0.1,0.1,0.1,0.1,0.2,0.2c0.2,0.1,0.5,0.3,0.7,0.4c0.2,0.1,0.5,0.2,0.7,0.3c0.4,0.1,0.8,0.2,1.2,0.2
		c0.2,0,0.4,0,0.6-0.1c0.3-0.1,0.5-0.2,0.7-0.3c0,0,0,0,0,0v0c0,0,0,0,0,0c0.1-0.1,0.2-0.2,0.3-0.3c0,0,0,0,0,0
		c0.1-0.1,0.2-0.2,0.3-0.4c0.1-0.1,0.2-0.2,0.2-0.3c0.1-0.1,0.1-0.2,0.2-0.3c0.1-0.2,0.3-0.4,0.4-0.6c0.1-0.2,0.2-0.3,0.3-0.5
		c0.1-0.2,0.2-0.4,0.3-0.6c0.1-0.2,0.2-0.4,0.3-0.7c0.4-0.9,0.9-2,1.3-3.1c0.1-0.2,0.2-0.4,0.2-0.7c0,0,0,0,0,0c0,0,0-0.1,0-0.1
		c0.2-0.6,0.4-1.1,0.6-1.8c0.6-1.9,1.3-4,2.1-6.2c0.1-0.2,0.1-0.3,0.2-0.5c0.1-0.4,0.2-0.8,0.4-1.1c0,0,0,0,0,0
		c0.1-0.3,0.2-0.6,0.3-0.9c0-0.1,0-0.1,0.1-0.2c0.2-0.7,0.4-1.4,0.6-2.1c0.4-1.6,0.8-3,1.3-4.4c0.1-0.2,0.1-0.4,0.2-0.6
		c0-0.1,0.1-0.2,0.1-0.2c0.1-0.2,0.1-0.3,0.2-0.5c0,0,0-0.1,0-0.1c0.2-0.6,0.5-1.2,0.9-1.8c0.1-0.2,0.2-0.3,0.3-0.5
		c0-0.1,0.1-0.2,0.2-0.3c0,0,0-0.1,0.1-0.1c0.2-0.4,0.5-0.8,0.8-1.2c0.1-0.1,0.2-0.3,0.3-0.4c0,0,0,0,0,0c0,0,0,0,0,0
		c0.1-0.1,0.2-0.3,0.3-0.4c0.1-0.2,0.3-0.3,0.4-0.5c0.4-0.5,0.9-1,1.4-1.5v0c11.4-11.4,47.2-15.5,66.9-7.9c1.2,0.5,2.4,1,3.7,1.6
		c0.6,0.3,1.2,0.6,1.8,0.9c0.9,0.5,1.8,1,2.7,1.5c0.6,0.4,1.2,0.7,1.8,1.1c0.6,0.4,1.2,0.8,1.8,1.2c0.4,0.3,0.8,0.5,1.1,0.8
		c0.1,0,0.1,0.1,0.2,0.1v0c0.2,0.2,0.4,0.3,0.7,0.5c0.2,0.2,0.4,0.3,0.7,0.5v0c0.1,0.1,0.2,0.2,0.3,0.2c0.2,0.1,0.4,0.3,0.5,0.4
		c0.2,0.2,0.4,0.3,0.6,0.5c0.4,0.3,0.8,0.6,1.1,0.9c0.3,0.2,0.6,0.5,0.9,0.7c0.6,0.5,1.1,1,1.7,1.5c0.3,0.3,0.6,0.5,0.8,0.8
		c0.6,0.5,1.1,1.1,1.7,1.6c10.8,10.8,20.2,25.6,25.9,41.7c0.2,0.6,0.4,1.2,0.6,1.7c0.1,0.2,0.2,0.5,0.3,0.7c0.5,1.2,0.9,2.2,1.2,3.2
		c0.2,0.4,0.3,0.7,0.4,1.1c0.8,2.1,1.5,3.9,2.2,6.2c0.1,0.4,0.2,0.8,0.4,1.2c0.3,1.1,0.6,2.3,1,3.8c0.1,0.3,0.1,0.5,0.2,0.8
		c0.3,1.2,0.6,2.5,0.9,3.9c0,0,0,0,0,0c1,3.9,1.8,7.8,2.3,11.7l0,0c0.4,3.4,0.7,6.5,0.9,9.8c0.2-2,0.3-3.8,0.5-5.5
		c0.1-0.8,0.1-1.5,0.2-2.2c0.1-0.5,0.1-1.1,0.2-1.6s0.1-1,0.2-1.5c0-0.3,0.1-0.7,0.1-1c0-0.2,0-0.3,0.1-0.5c0-0.5,0.1-0.9,0.1-1.2
		c0.1-0.4,0.1-0.8,0.2-1.1c0-0.2,0-0.3,0.1-0.5c0-0.2,0.1-0.4,0.1-0.5c0,0,0-0.1,0-0.1c0-0.1,0-0.2,0.1-0.3c0-0.1,0-0.2,0-0.3
		c0-0.1,0-0.2,0-0.3c8.3-40,33.7-69.5,71.5-82.4c11.1-3.8,13.7-4.2,28.2-4.2c32.7,0.1,56.9,10.8,82.7,36.9
		c10.2,10.2,14.1,15.3,17.3,22.2c2.3,5,5.5,11.1,7.1,13.6c0.1,0.2,0.3,0.5,0.4,0.7c0.5,1,1.1,2.1,1.6,3.4c0.1,0.2,0.2,0.4,0.2,0.6
		c1,2.6,2,5.7,2.9,9.2c0,0,0,0,0,0.1c2.2,8.8,4,19.9,4.5,30.2c0.7,13.4,0.5,15.8-1.5,17.7c-5.3,5.5-26,7.8-69.1,7.8
		c-28.8,0.1-72.5-1.9-74.8-3.2c-0.5-0.4-2.3,0.1-3.6,1.2c-2.1,1.5-2.5,3.3-2.4,11c0.3,10.8,2.1,15,10.2,22.6
		c0.2,0.2,0.5,0.5,0.7,0.7c0,0,0.1,0.1,0.1,0.1c0,0,0.1,0.1,0.1,0.1c0.2,0.2,0.4,0.4,0.7,0.6c0.6,0.6,1.3,1.1,1.9,1.7
		c0,0,0.1,0.1,0.1,0.1c0.4,0.3,0.8,0.7,1.3,1c0.4,0.4,0.9,0.7,1.3,1c0.2,0.2,0.4,0.3,0.7,0.5c0.4,0.3,0.9,0.6,1.4,1
		c0.5,0.3,0.9,0.6,1.4,0.9c0.7,0.4,1.4,0.9,2.2,1.2c1.5,0.8,3.1,1.6,4.8,2.3c0.3,0.1,0.6,0.2,0.9,0.4c0.6,0.2,1.1,0.5,1.7,0.7
		c0.7,0.2,1.4,0.5,2.1,0.8c0.3,0.1,0.7,0.2,1,0.3c0.4,0.1,0.7,0.3,1.1,0.4c0.4,0.1,0.7,0.2,1.1,0.4c0.4,0.1,0.8,0.2,1.1,0.4
		c10.2,3.4,16.6,4.3,21.8,2.6c0.4-0.1,0.9-0.3,1.3-0.5c0.1,0,0.1,0,0.2-0.1c0.2-0.1,0.3-0.1,0.5-0.2c0,0,0,0,0.1,0c0,0,0.1,0,0.1,0
		c0.1,0,0.2-0.1,0.3-0.1c0.5-0.2,0.9-0.5,1.4-0.8c0,0,0,0,0,0c0.2-0.1,0.4-0.3,0.6-0.4c0,0,0,0,0,0c0.2-0.1,0.4-0.3,0.6-0.4
		c0.6-0.4,1.1-0.8,1.6-1.1c0.1-0.1,0.2-0.1,0.3-0.2c0.1-0.1,0.2-0.1,0.2-0.2c0.2-0.1,0.3-0.2,0.5-0.4c0.2-0.1,0.3-0.2,0.5-0.4
		c0.4-0.3,0.7-0.6,1.1-0.9c0.2-0.2,0.5-0.4,0.7-0.6c0.2-0.2,0.5-0.4,0.7-0.7c0.5-0.5,1-1.1,1.5-1.6c0.2-0.2,0.4-0.5,0.6-0.7
		c0.2-0.3,0.5-0.6,0.7-0.9c0.2-0.3,0.4-0.5,0.6-0.8c0.1-0.2,0.3-0.4,0.4-0.6c0.2-0.3,0.5-0.7,0.7-1.1c0.1-0.2,0.2-0.4,0.4-0.6
		c0-0.1,0.1-0.1,0.1-0.2c0,0,0,0,0,0c1-1.6,2.1-3.5,3.4-5.8c4.8-9.1,7.1-10.2,23.4-11.1c6.7-0.5,17.7-1.5,24.5-2.3
		c15.8-2,26.8-1.1,29.2,2.1C1343.6,178.9,1344,181.6,1343.7,185z M1241.5,196.8c-2.5,2.9-6.8,3.1-14.6,0.1l0,0
		c-1.4-0.5-6.2-2.4-5.6-3.3c0.6-1.1,6.9-0.8,8.9-0.9c3.8-0.1,11.7-0.3,12.8,0.7C1243.5,194,1242,196.2,1241.5,196.8z"/>
	<path class="st1" d="M1271.5,103.5c0,0.1-0.1,0.2-0.1,0.3c-0.2,0.4-0.4,0.8-0.8,1.3c-0.1,0.1-0.1,0.1-0.2,0.2
		c-0.2,0.2-0.4,0.4-0.5,0.5c-1.2,1.2-3,2.3-5.6,3.6c-5.9,2.9-8.7,3.3-24.1,3.6c-9.5,0.3-20.2-0.1-23.7-0.8
		c-5.9-1.1-13.7-5.2-16.2-8.7c-0.2-0.2-0.3-0.5-0.4-0.8c0,0,0,0,0,0c-1.3-4.1,4-11,11.8-16.4c0.5-0.3,0.9-0.6,1.4-1
		c0.3-0.2,0.7-0.5,1.1-0.7c4.8-3,10.2-5.3,15.5-6.2c0,0,0.1,0,0.2,0c2.3-0.3,4.6-0.2,6.9,0.2c0.2,0,0.5,0.1,0.7,0.1
		c3.8,0.8,8,2.3,12,4.3c0.3,0.1,0.6,0.3,0.8,0.4c5.1,2.7,11.9,7.5,15.4,10.5c2.2,2,3.8,3.7,4.8,5.2c0.1,0.1,0.2,0.3,0.2,0.4
		c0.2,0.3,0.3,0.7,0.5,1C1271.6,101.9,1271.7,102.8,1271.5,103.5z"/>
	<g>
		<path class="st1" d="M781.1,208.3c-0.1,0.6-0.3,1.4-0.5,2.1c0,0.1-0.1,0.2-0.1,0.3c-0.7,1.9-1.4,3.3-2.3,4.4
			c-0.1,0.2-0.2,0.3-0.4,0.5c0,0,0,0,0,0c-0.1,0.1-0.2,0.2-0.2,0.3c-0.4,0.4-0.8,0.8-1.3,1.1c-0.1,0.1-0.2,0.1-0.3,0.2
			c-0.1,0-0.1,0.1-0.2,0.1c-0.1,0.1-0.3,0.1-0.4,0.2c-0.8,0.3-1.7,0.7-2.7,0.9c-6.5,1.2-13.1,0.7-19.2-0.7c-0.2-0.1-0.5-0.1-0.7-0.2
			c-1.5-0.4-2.9-0.8-4.4-1.4c-2.5-0.9-4.8-1.8-6.8-2.7c0,0,0,0,0,0c-2.9-1.4-5.5-3-7.7-4.5c-2.3-1.9-4.2-4-5.8-6.8
			c-0.1-0.1-0.2-0.3-0.2-0.4c-0.7-1.4-1.1-2.6-1.3-3.5c0,0,0,0,0,0c-0.1-0.4-0.1-0.8-0.2-1.1c-0.3-3.5,1.6-7.2,6.4-11.6
			c10.7-9.9,22.8-8.7,37.2,4.2c2.4,2.1,4.4,4.1,6,6.1c0,0-0.1,0-0.1,0S782.2,202.9,781.1,208.3z"/>
	</g>
	<g>
		<path class="st1" d="M578.8,76.4c-0.1-0.1-0.1-0.2-0.1-0.3c-1.3-3.4-3.2-6.4-5.6-8.9c-0.1-0.1-0.2-0.2-0.3-0.2
			c-0.5-0.4-0.9-0.8-1.4-1.2c-1.4-1-3-1.8-4.8-2.3c0,0,0,0,0,0c-2.8-0.7-6.3-1-9.9-0.9c-8.3,0.4-17,3.2-20.7,5.8
			c-0.5,0.4-1,0.9-1.4,1.3c-0.4,0.5-0.8,1-1.2,1.6c-0.1,0.2-0.3,0.4-0.4,0.6c-0.1,0.1-0.1,0.2-0.2,0.3c-4.8,8.8-5.5,21.7-5.9,22.7
			c0,0,0,0,0,0c-0.9,13,4.1,19.8,17,24.1c4.8,1.6,19.3,0.4,24-2.1c7.7-3.9,12.1-13.4,13-23.3c0,0,0-0.1,0-0.1
			C581.1,90.3,581.1,83.1,578.8,76.4z M544.5,112.2c-0.6-0.1-3-0.9-3.6-1.3c-3.4-2.5-5.2-6.7-6.1-10.7c-0.4-1.7-0.1-3.8,1.6-4.8
			c1.4-0.8,3,0.2,3.7,1.4c2.9,4.4,3.2,4.9,5.2,9.8c0.5,1.1,1,3.2,1,4.5l0,0C546.3,111.9,545.2,112.3,544.5,112.2z"/>
	</g>
	<g>
		<path class="st1" d="M177.4,88.1c-0.1-0.3-0.2-0.5-0.4-0.8c-0.1-0.2-0.2-0.3-0.3-0.5c-0.7-1.2-1.7-2.4-3.1-4
			c-2.3-2.6-4.8-4.7-7.8-6.3c-4.4-2-9.5-3.5-14.8-4.2c-0.4,0-0.8-0.1-1.2-0.1c-0.4,0-0.7-0.1-1.1-0.1c-0.4,0-0.9-0.1-1.3-0.1
			c-0.4,0-0.9,0-1.3,0c-0.4,0-0.9,0-1.3,0c-1.3,0-2.6,0.1-3.8,0.2c-10.6,0.9-21.8,6.6-27.3,18.5c-1.9,4.4-3.1,9.6-3.5,15.4
			c0,0.8-0.1,1.5-0.1,2.1v0.1c0,0.2,0,0.4,0,0.5v0c-0.3,6.3,0.4,8.3,3.1,12.9c8.4,14.5,26.6,22,40.6,16.7
			c15.3-5.6,24.5-21,24.5-40.7C178.4,92.8,178.3,90.3,177.4,88.1z M140.5,129.4c-3.2,0.3-8.2-1.9-12.4-5.6c-3.6-3-6-7.1-7.5-11.5
			c-0.4-1.2-1.6-4.1,0.4-4.9c0.7-0.3,1.5-0.4,2.2-0.4c1.3,0.1,2.6,0.2,3.9,0.6c1.7,0.4,3.3,1,5,1.7c8.8,3.5,11,6.1,11,13.4l0,0
			C143.2,128.2,142.8,129.1,140.5,129.4z"/>
	</g>
</g>
</svg>
