<?xml version="1.0" encoding="utf-8"?>
<!-- Generator: Adobe Illustrator 26.5.0, SVG Export Plug-In . SVG Version: 6.00 Build 0)  -->
<svg version="1.1" id="Layer_2_00000072246682839405466570000016630192065059157159_"
	 xmlns="http://www.w3.org/2000/svg" xmlns:xlink="http://www.w3.org/1999/xlink" x="0px" y="0px" viewBox="0 0 109.9 124.7"
	 style="enable-background:new 0 0 109.9 124.7;" xml:space="preserve">
<style type="text/css">
	.st0{fill:#FFFFFF;}
</style>
<g id="Capa_1">
	<path class="st0" d="M0,0l10,112.2l44.9,12.5l45-12.5L109.9,0H0z M89,26.6l-0.6,7l-0.3,3.1H35.5l1.3,14.1h50l-0.3,3.7l-3.2,36.2
		L83.1,93L55,100.8v0h-0.1L26.7,93l-1.9-21.6h13.8l1,11L55,86.5l15.2-4.1l1.6-17.8H54.9v-0.1H24.2l-3.4-37.9l-0.3-3.7H55
		c2,0,34.3,0,34.3,0L89,26.6z"/>
</g>
</svg>
