<?xml version="1.0" encoding="UTF-8"?>
<svg id="Layer_2" data-name="Layer 2" xmlns="http://www.w3.org/2000/svg" viewBox="0 0 583 519.06">
  <defs>
    <style>
      .cls-1 {
        fill: #fff;
      }
    </style>
  </defs>
  <g id="Layer_1-2" data-name="Layer 1">
    <g>
      <path class="cls-1" d="M419.55,519.06h-24.22c-.51-.22-1-.56-1.54-.65-12.24-2.2-23.7-6.65-34.68-12.35-24.36-12.64-45.46-29.69-65.13-48.61-1.94-1.87-3.01-1.86-4.93,0-11.89,11.6-24.51,22.36-38.08,31.96-16.54,11.7-33.88,21.84-53.65,27.17-3.2,.86-6.41,1.66-9.62,2.48h-24.22c-.44-.67-1.18-.63-1.84-.78-16.71-3.87-29.02-13.57-37.41-28.38-9.24-16.31-11.97-34.26-12.5-52.61-.73-25.3,3.3-50.06,9.13-74.58,1.27-5.35,1.29-5.39-3.89-6.91-21.51-6.33-42.39-14.24-62-25.21-16.01-8.96-30.84-19.46-41.94-34.4-10.11-13.61-15.06-28.68-12.22-45.77,2.4-14.44,9.87-26.18,19.83-36.49,12.58-13.03,27.73-22.43,43.8-30.47,17.47-8.75,35.78-15.35,54.52-20.79,2.2-.64,3.19-1.24,2.51-3.97-4.93-19.82-8.47-39.9-9.52-60.33-1.01-19.7,.1-39.2,7.06-57.93,5.29-14.26,13.77-25.99,27.18-33.77C151.6,3.5,157.61,1.99,163.47,0,171.54,0,179.62,0,187.69,0c.51,.22,1.01,.55,1.55,.65,13.86,2.53,26.68,7.84,38.95,14.61,22.57,12.45,42.36,28.55,60.85,46.34,1.94,1.87,3.03,1.9,4.92,0,6.49-6.55,13.46-12.59,20.57-18.46,17.49-14.42,36.01-27.21,57.09-35.95C379.3,4.02,387.33,2.09,395.32,0,403.4,0,411.47,0,419.55,0c.39,.22,.75,.54,1.17,.63,21.09,4.67,34.56,18.07,42.4,37.55,9.02,22.42,9.3,45.87,7.28,69.48-1.45,17.02-4.54,33.78-8.7,50.34-.72,2.86-.19,3.93,2.73,4.77,18.18,5.26,35.97,11.61,52.95,20.06,18.81,9.36,36.4,20.39,50.1,36.76,20.08,24,20.73,52.94,1.67,77.69-11.65,15.13-26.99,25.67-43.5,34.66-19.52,10.64-40.28,18.25-61.57,24.45-2.2,.64-3.18,1.25-2.51,3.98,4.93,19.94,8.5,40.12,9.51,60.67,.97,19.71-.11,39.22-7.19,57.9-7.07,18.65-19.09,32.44-38.82,38.38-1.84,.56-3.87,.56-5.52,1.73Zm-128.16-165.55c16.94-.45,33.88-.62,50.79-1.89,1.69-.13,2.73-.76,3.64-2.12,18.98-28.14,35.92-57.46,50.75-87.99,.66-1.37,.71-2.49,.03-3.88-14.82-30.54-31.78-59.85-50.75-87.99-.8-1.19-1.63-2.05-3.26-2.16-18.75-1.28-37.54-1.98-56.32-1.77-14.86,.17-29.73,.52-44.57,1.7-2.15,.17-3.57,.71-4.82,2.57-18.73,27.89-35.52,56.89-50.22,87.11-.84,1.72-.93,3.1-.03,4.82,3.3,6.34,6.36,12.8,9.68,19.12,12.27,23.4,25.78,46.07,40.55,67.97,1.01,1.5,2.03,2.48,4.07,2.63,16.79,1.23,33.62,1.42,50.45,1.87Zm266.36-93.79c-.29-9.13-3.96-16.57-9.33-23.3-6.85-8.58-15.38-15.22-24.61-21.01-20.88-13.1-43.74-21.57-67.22-28.61-2.4-.72-2.96,.2-3.56,2.13-7.32,23.34-16.28,46.05-26.46,68.28-.73,1.6-.77,2.95-.03,4.57,10.19,22.23,19.16,44.93,26.45,68.28,.7,2.23,1.54,2.82,3.88,2.12,17.68-5.33,35.05-11.46,51.54-19.85,13.31-6.77,25.99-14.5,36.35-25.48,7.29-7.72,12.68-16.42,12.99-27.14ZM137.21,431.5c0,3-.15,6,.03,8.99,.65,11.09,2.26,22,6.73,32.31,6.46,14.9,17.16,21.93,33.31,21.36,14.08-.5,26.65-6,38.75-12.65,20.67-11.36,38.67-26.25,55.68-42.45,1.76-1.68,1.72-2.64,.09-4.4-16.09-17.36-30.78-35.87-44.49-55.15-2.12-2.98-4.5-4.07-7.9-4.41-8.82-.87-17.65-1.83-26.42-3.09-14.48-2.08-28.91-4.46-43.17-7.8-1.86-.44-3.18-.43-3.77,2.05-5.16,21.46-8.88,43.09-8.83,65.24ZM175.55,24.77c-15.21-.2-25.25,7.44-31.3,20.85-5.11,11.33-6.73,23.42-7.1,35.71-.72,24.16,3.22,47.74,8.81,71.13,.59,2.46,1.66,2.87,3.86,2.4,6.42-1.39,12.83-2.78,19.29-3.95,17.12-3.11,34.34-5.55,51.67-7.17,2.02-.19,3.85-.49,5.3-2.54,14.16-19.95,29.29-39.13,45.94-57.09,1.41-1.52,1.47-2.4-.09-3.9-17.32-16.55-35.69-31.72-56.83-43.2-12.34-6.7-25.21-11.95-39.57-12.25Zm-47.56,161.65c-.68,.19-1.12,.32-1.56,.45-17.82,5.26-35.29,11.44-51.88,19.9-13.31,6.78-25.95,14.53-36.36,25.47-17.07,17.94-17.04,36.71,.05,54.65,6.98,7.32,15.06,13.21,23.68,18.41,20.19,12.18,42.11,20.18,64.56,26.99,2.9,.88,3.05-.83,3.6-2.57,7.28-23.11,16.18-45.59,26.24-67.62,.85-1.86,.79-3.35-.03-5.2-3.95-8.96-7.85-17.94-11.58-27-5.48-13.32-10.32-26.89-14.7-40.61-.35-1.11-.1-3.03-2.03-2.86ZM445.98,84.74c.12-2.85-.21-8.49-.87-14.1-1.25-10.71-3.51-21.17-9.29-30.5-6.18-9.99-15.16-15.11-26.97-15.34-10.38-.2-20.09,2.56-29.44,6.66-26.28,11.53-47.99,29.47-68.59,48.99-1.59,1.51-1,2.38,.17,3.64,16.6,17.99,31.73,37.17,45.95,57.08,1.02,1.42,2.11,2.21,3.89,2.39,6.42,.64,12.83,1.35,19.23,2.15,17.96,2.22,35.79,5.15,53.44,9.16,1.88,.43,2.93,.08,3.45-2.08,5.17-21.45,8.88-43.09,9.02-68.05Zm-.04,346.82c-.07-22.15-3.81-43.78-8.96-65.24-.58-2.44-1.8-2.51-3.73-2.1-6.31,1.34-12.61,2.74-18.96,3.89-17.12,3.09-34.32,5.63-51.67,7.11-2.79,.24-4.73,1.24-6.48,3.69-13.85,19.46-28.66,38.17-44.89,55.71-1.56,1.68-1.84,2.66,0,4.4,13.56,12.9,27.79,24.98,43.52,35.17,12.92,8.38,26.41,15.55,41.65,18.87,22.04,4.8,37.21-3.67,44.48-25.03,4.03-11.82,5.08-24.07,5.04-36.47Zm-68.93-260.81c12.28,19.44,23.36,38.6,33.73,58.44,.53-.68,.81-.92,.94-1.22,6.33-14.97,11.91-30.21,16.93-45.67,.78-2.41-.38-2.73-2.17-3.07-8.14-1.55-16.25-3.29-24.42-4.7-8.02-1.38-16.09-2.45-25.01-3.79Zm-171.09,.18c-17.39,2.16-33.81,4.98-50.13,8.48-2.39,.51-1.67,1.92-1.21,3.35,4.48,13.93,9.48,27.67,15.08,41.19,.69,1.67,1.06,3.54,2.66,5.19,10.31-19.72,21.34-38.84,33.61-58.21Zm51.75-29.88c22.84-.93,44.94-.82,67.66-.07-10.56-13.95-21.22-26.9-32.56-39.3-1.18-1.29-1.82-.78-2.71,.24-2.81,3.2-5.72,6.31-8.5,9.54-8.11,9.4-16.01,18.98-23.89,29.6Zm119.68,206.67c.76,.14,1.1,.28,1.4,.24,15.98-2.14,31.88-4.75,47.67-8.09,2.63-.56,2.71-1.61,2-3.75-3.42-10.28-6.94-20.52-10.89-30.6-2.05-5.23-4.19-10.43-6.51-16.21-10.56,20.26-21.67,39.47-33.66,58.41Zm-205.09-57.89c-.56,.73-.84,.97-.96,1.28-6.29,14.97-11.9,30.2-16.9,45.65-.8,2.47,.51,2.69,2.22,3.02,8.25,1.58,16.47,3.32,24.74,4.74,7.89,1.36,15.84,2.41,24.65,3.73-12.3-19.4-23.32-38.51-33.75-58.42Zm86.07,88.26c.04,.46-.01,.73,.1,.88,9.96,13.27,20.53,26.02,31.72,38.28,1.32,1.44,1.98,.85,2.94-.27,5.49-6.36,11.12-12.6,16.52-19.03,5.3-6.31,10.51-12.71,15.57-19.87-22.62,.79-44.72,.79-66.85,.02Z"/>
      <path class="cls-1" d="M291.49,311.47c-28.74,0-51.89-23.14-51.91-51.88-.01-28.94,23.15-52.06,52.11-52.01,28.7,.05,51.76,23.24,51.74,52.04-.02,28.71-23.21,51.85-51.94,51.85Z"/>
    </g>
  </g>
</svg>