<?xml version="1.0" encoding="utf-8"?>
<!-- Generator: Adobe Illustrator 26.5.0, SVG Export Plug-In . SVG Version: 6.00 Build 0)  -->
<svg version="1.1" id="Layer_2_00000127002609367442991390000015889948193067402168_"
	 xmlns="http://www.w3.org/2000/svg" xmlns:xlink="http://www.w3.org/1999/xlink" x="0px" y="0px" viewBox="0 0 125.2 125.2"
	 style="enable-background:new 0 0 125.2 125.2;" xml:space="preserve">
<style type="text/css">
	.st0{fill:#FFFFFF;}
</style>
<g id="Capa_1">
	<path class="st0" d="M0,0v125.2h125.2V0H0z M66,107.2c-1.9,3.7-5.4,6.2-9.5,7.4c-6.2,1.4-12.2,0.6-16.7-2.1c-3-1.8-5.3-4.7-6.9-7.9
		l9.5-5.8c0.1,0.1,0.4,0.5,0.7,1.1c1.2,2.1,2.2,3.5,4.3,4.5c2,0.7,6.5,1.2,8.2-2.4c1-1.9,0.7-7.8,0.7-14.2V57.5h11.8
		c-0.1,10.8,0,21.5,0,32.3C68.1,96.3,68.7,102.3,66,107.2z M114.6,103.9c-4,14-26.7,14.4-35.8,5.2c-2-2.2-3.2-3.3-4.3-5.8
		c3.2-1.9,6.4-3.7,9.5-5.5c2.5,3.9,4.9,6,9.1,6.9c5.7,0.7,11.5-1.3,10.2-7.4c-1.4-4.9-11.8-6.2-18.9-11.5c-7.2-4.8-8.9-16.6-3-23.3
		c2-2.4,5.4-4.3,8.9-5.2l3.7-0.5c7.1-0.2,11.6,1.7,14.8,5.3c0.9,0.9,1.6,1.9,3,4c-3.8,2.4-3.8,2.4-9.2,5.9c-1.2-2.5-3.1-4-5.1-4.7
		c-3.1-1-7.1,0.1-7.9,3.4c-0.3,1.1-0.2,2,0.2,3.7c1.3,2.9,5.6,4.1,9.4,5.9c11.1,4.5,14.8,9.3,15.7,15
		C115.8,100.3,114.7,103.4,114.6,103.9z"/>
</g>
</svg>
