<?xml version="1.0" encoding="utf-8"?>
<!-- Generator: Adobe Illustrator 26.5.0, SVG Export Plug-In . SVG Version: 6.00 Build 0)  -->
<svg version="1.1" id="Layer_2_00000181803860600704064690000001296991162080565414_"
	 xmlns="http://www.w3.org/2000/svg" xmlns:xlink="http://www.w3.org/1999/xlink" x="0px" y="0px" viewBox="0 0 125 53.4"
	 style="enable-background:new 0 0 125 53.4;" xml:space="preserve">
<style type="text/css">
	.st0{fill:#FFFFFF;}
</style>
<g id="Capa_1">
	<path class="st0" d="M118.1,0H6.9C3.1,0,0,3.1,0,6.9v39.6c0,3.8,3.1,6.9,6.9,6.9h111.2c3.8,0,6.9-3.1,6.9-6.9V6.9
		C125,3.1,121.9,0,118.1,0z M8.8,27c0-6.2,4-10,10.2-10c1,0,1.7,0.1,2.6,0.3v-9h5.9v27.4c-3,0.6-5.3,0.8-7.7,0.8
		C12.6,36.5,8.8,33.2,8.8,27z M36.9,31.2c0,4.7-0.3,7-1.4,9c-1,1.9-2.2,3.1-4.8,4.4L25.2,42c2.6-1.2,3.9-2.3,4.7-4
		c0.8-1.7,1.1-3.7,1.1-8.8V17.5h5.9V31.2z M36.9,14.5H31V8.4h5.9V14.5z M54.9,35.9c-2.7,0.4-6,0.7-8.5,0.7c-5,0-7.2-1.7-7.2-5.6
		c0-4.2,3-6.1,10.2-6.7V23c0-1.1-0.5-1.5-2-1.5c-2.2,0-4.7,0.6-7,1.8l0.1-4.5c2.6-1.2,5.1-1.8,7.8-1.8c3,0,5,0.8,5.9,2.4
		c0.5,0.9,0.7,2,0.7,4.5V35.9z M75.2,36.3h-5.9V24.9c0-2.3-0.8-3.1-2.9-3.1c-0.8,0-1.5,0.1-2.7,0.4v14.1h-5.9V18.4
		c3.5-0.9,6.4-1.3,9.3-1.3c2.9,0,5.2,0.7,6.5,2c1.2,1.3,1.6,2.7,1.6,5.6V36.3z M95.4,22.2c0,0-0.1,0-0.5-0.1v0.6l0.1,2.5v3.2
		c0,0.8,0,1.6,0.1,2.4v1.6c0,5.1-0.4,7.5-1.7,9.4c-1.8,2.9-5,4.3-9.6,4.3c-2.3,0-4.3-0.3-6.4-1.2v-5.4h0.1c2.1,1.1,4.2,1.6,6.3,1.6
		c3.9,0,5.5-1.6,5.5-5.3v-0.1c-1.2,0.6-2.3,0.8-3.8,0.8c-5.2,0-8.5-3.4-8.5-8.8c0-6.7,4.9-10.5,13.5-10.5c2.5,0,4.9,0.3,7.7,0.8
		l-2,4.3C95.6,22.2,95.4,22.2,95.4,22.2L95.4,22.2z M107.2,36.9c-6,0-9.6-3.7-9.6-9.7c0.1-6.3,3.9-10.2,9.9-10.2
		c5.9,0,9.5,3.7,9.5,9.8C117,32.9,113.2,36.9,107.2,36.9z"/>
	<path class="st0" d="M21.5,22.1v9.5c-0.8,0.2-1.3,0.2-2,0.2c-3,0-4.7-1.6-4.7-4.9s1.7-5.1,4.7-5.1C20.2,21.8,20.8,21.9,21.5,22.1z"
		/>
	<path class="st0" d="M49.6,28.2v3.9c-1.1,0.2-1.9,0.3-2.8,0.3c-1.6,0-2.3-0.5-2.3-1.7C44.5,29.2,45.8,28.6,49.6,28.2z"/>
	<path class="st0" d="M89.4,31.3c-0.7,0.2-1.4,0.4-2.2,0.4c-2.6,0-4.1-1.7-4.1-4.7c0-2,0.8-3.5,2.2-4.3c0.9-0.5,2.2-0.8,3.4-0.8h0.6
		L89.4,31.3z"/>
	<path class="st0" d="M111,26.8c0,3.3-1.3,5.2-3.6,5.2c-2.3,0-3.6-1.8-3.7-5.2c0-3.3,1.4-5.2,3.7-5.2C109.7,21.6,111,23.5,111,26.8z
		"/>
</g>
</svg>
