<?xml version="1.0" encoding="UTF-8"?>
<svg id="Layer_2" data-name="Layer 2" xmlns="http://www.w3.org/2000/svg" viewBox="0 0 155.08 162.2">
  <defs>
    <style>
      .cls-1 {
        fill: #fff;
      }
    </style>
  </defs>
  <g id="Logo_White" data-name="Logo White">
    <g>
      <g>
        <path class="cls-1" d="M76.67,131.17v31.03c-.67-.19-1.19-.33-1.71-.49-12.46-4.05-24.92-8.1-37.38-12.16-2.23-.72-4.45-1.47-6.69-2.15-.9-.27-1.54-.74-2.1-1.51-7.62-10.53-15.28-21.05-22.92-31.57-1.48-2.03-2.96-4.06-4.43-6.09-.29-.4-.55-.82-.91-1.36,10.03-3.04,19.95-6.05,30.1-9.13,15.27,11.09,30.65,22.26,46.03,33.43Z"/>
        <path class="cls-1" d="M154.58,106.88c-.57,.79-1.04,1.46-1.52,2.12-8.93,12.28-17.86,24.56-26.77,36.85-.55,.76-1.17,1.24-2.09,1.54-14.7,4.75-29.39,9.55-44.08,14.32-.52,.17-1.05,.29-1.72,.47v-31.01c15.18-11.03,30.53-22.19,46-33.42,9.96,3.02,19.98,6.05,30.17,9.14Z"/>
        <path class="cls-1" d="M78.07,129.44c-.17,.13-.35,.25-.53,.38-.21-.15-.43-.31-.64-.47,.39,.03,.78,.06,1.17,.08Z"/>
        <path class="cls-1" d="M155.06,81.49v23.87c-10.22-3.09-20.13-6.1-30.17-9.13-5.85-18.01-11.71-36.05-17.6-54.15,6.21-8.78,12.4-17.52,18.66-26.37,1.97,2.68,3.86,5.23,5.73,7.8,6.44,8.85,12.87,17.71,19.3,26.57,1.05,1.45,2.05,2.93,3.15,4.34,.69,.89,.95,1.82,.94,2.94-.03,8.04-.02,16.09-.02,24.14Z"/>
        <path class="cls-1" d="M124.64,14.82c-6.23,8.79-12.38,17.48-18.58,26.24H49.03c-6.12-8.63-12.3-17.36-18.63-26.28,1.45-.49,2.69-.92,3.95-1.32C47.29,9.25,60.27,5.13,73.17,.77c3.02-1.02,5.65-1.04,8.68-.02,11.89,4.04,23.86,7.83,35.79,11.71,1.86,.6,3.72,1.2,5.57,1.8,.42,.14,.82,.32,1.42,.55Z"/>
        <path class="cls-1" d="M47.78,42.06c-5.84,17.98-11.7,36.02-17.6,54.15-10.07,3.05-19.99,6.05-30.04,9.09-.05-.54-.12-.97-.12-1.4,0-15.65,0-31.29-.03-46.94,0-.97,.33-1.7,.88-2.44,6.77-9.3,13.53-18.61,20.29-27.92,2.26-3.12,4.52-6.24,6.79-9.36,.33-.45,.68-.88,1.17-1.5,6.25,8.81,12.4,17.5,18.65,26.32Z"/>
      </g>
      <g>
        <path class="cls-1" d="M123.32,96.56c-15.15,11.01-30.14,21.9-45.26,32.88-.39-.03-.78-.06-1.17-.08-3.89-2.82-7.77-5.64-11.65-8.46,.86-.24,1.71-.49,2.56-.75,6.36-1.99,12.47-4.52,17.69-8.85,6.9-5.73,9.08-13.41,5.93-21.81-.76-2.03-1.82-3.95-2.68-5.94-3.54-8.19-3.92-16.19,1.71-23.68,3.62-4.81,8.86-7.08,14.43-8.74,1.05-.31,2.14-.45,3.44-.7,4.97,15.31,9.96,30.66,14.98,46.14Z"/>
        <path class="cls-1" d="M69.19,56.47c-2.71,4.77-2.85,9.79-1.17,14.91,.68,2.06,1.63,4.02,2.59,5.97,3.45,7.01,4.27,14.16,.7,21.44-2.17,4.43-5.84,7.28-10.09,9.44-2.83,1.43-5.82,2.48-9.23,3.03-.35-.25-.69-.5-1.04-.76-6.39-4.64-12.78-9.28-19.2-13.95,1.43-4.41,2.86-8.81,4.29-13.21,4.39-13.51,8.76-26.99,13.15-40.5h39.05c-2.33,.83-4.62,1.8-6.84,2.96-4.94,2.58-9.4,5.7-12.22,10.68Z"/>
        <path class="cls-1" d="M52,111.26c-.15,.03-.31,.05-.46,.07-.2-.27-.39-.55-.58-.83,.35,.25,.69,.51,1.04,.76Z"/>
      </g>
    </g>
  </g>
</svg>