<?xml version="1.0" encoding="utf-8"?>
<!-- Generator: Adobe Illustrator 26.5.0, SVG Export Plug-In . SVG Version: 6.00 Build 0)  -->
<svg version="1.1" id="Layer_2_00000068649612005747110800000002523785602080262065_"
	 xmlns="http://www.w3.org/2000/svg" xmlns:xlink="http://www.w3.org/1999/xlink" x="0px" y="0px" viewBox="0 0 102.4 103.5"
	 style="enable-background:new 0 0 102.4 103.5;" xml:space="preserve">
<style type="text/css">
	.st0{fill:#FFFFFF;}
</style>
<g id="Capa_2">
	<g>
		<path class="st0" d="M50.6,0c-4.2,0-8.2,0.4-11.8,1C28.3,2.9,26.4,6.7,26.4,13.9v9.4h24.7v3.1h-34c-7.2,0-13.5,4.3-15.4,12.5
			c-2.3,9.4-2.4,15.3,0,25.1c1.8,7.3,5.9,12.5,13.1,12.5h8.5V65.3c0-8.2,7-15.3,15.4-15.3h24.7c6.9,0,12.3-5.7,12.3-12.5V13.9
			c0-6.7-5.7-11.7-12.3-12.8C59.2,0.3,54.8,0,50.6,0z M37.2,7.6c2.5,0,4.6,2.1,4.6,4.7s-2,4.7-4.6,4.7s-4.6-2.1-4.6-4.7
			C32.6,9.7,34.7,7.6,37.2,7.6z"/>
		<path class="st0" d="M51.7,102.5c4.2,0,8.2-0.4,11.8-1c10.4-1.8,12.3-5.7,12.3-12.8v-9.4H51.2v-3.1h34c7.2,0,13.5-4.3,15.4-12.5
			c2.3-9.4,2.4-15.3,0-25.1c-1.8-7.3-6-12.5-13.1-12.5H79v11.3c0,8.2-7.1,15.3-15.4,15.3H38.8c-6.9,0-12.4,5.7-12.4,12.5v23.5
			c0,6.7,5.7,11.7,12.4,12.8C43.1,102.2,47.5,102.6,51.7,102.5z M65,95c-2.5,0-4.6-2.1-4.6-4.7s2.1-4.7,4.6-4.7
			c2.6,0,4.6,2.1,4.6,4.7C69.7,92.8,67.6,95,65,95z"/>
	</g>
</g>
</svg>
